<mxfile host="app.diagrams.net" agent="Mozilla/5.0 (Windows NT 10.0; Win64; x64) AppleWebKit/537.36 (KHTML, like Gecko) Chrome/130.0.0.0 Safari/537.36" version="24.8.0">
  <diagram name="Page-1" id="Sl9F6fGguRrq2yxVRNwb">
    <mxGraphModel dx="880" dy="508" grid="1" gridSize="10" guides="1" tooltips="1" connect="1" arrows="1" fold="1" page="1" pageScale="1" pageWidth="850" pageHeight="1100" math="0" shadow="0">
      <root>
        <mxCell id="0" />
        <mxCell id="1" parent="0" />
        <mxCell id="9ewqIqUccNTAprrQMNb2-18" style="edgeStyle=orthogonalEdgeStyle;rounded=0;orthogonalLoop=1;jettySize=auto;html=1;entryX=0.5;entryY=1;entryDx=0;entryDy=0;endArrow=none;endFill=0;" edge="1" parent="1" source="9ewqIqUccNTAprrQMNb2-1" target="9ewqIqUccNTAprrQMNb2-8">
          <mxGeometry relative="1" as="geometry" />
        </mxCell>
        <mxCell id="9ewqIqUccNTAprrQMNb2-1" value="Client" style="whiteSpace=wrap;html=1;align=center;" vertex="1" parent="1">
          <mxGeometry x="400" y="150" width="100" height="40" as="geometry" />
        </mxCell>
        <mxCell id="9ewqIqUccNTAprrQMNb2-19" style="edgeStyle=orthogonalEdgeStyle;rounded=0;orthogonalLoop=1;jettySize=auto;html=1;exitX=1;exitY=0;exitDx=0;exitDy=0;entryX=0;entryY=0.5;entryDx=0;entryDy=0;endArrow=none;endFill=0;" edge="1" parent="1" source="9ewqIqUccNTAprrQMNb2-2" target="9ewqIqUccNTAprrQMNb2-15">
          <mxGeometry relative="1" as="geometry" />
        </mxCell>
        <mxCell id="9ewqIqUccNTAprrQMNb2-20" style="edgeStyle=orthogonalEdgeStyle;rounded=0;orthogonalLoop=1;jettySize=auto;html=1;exitX=1;exitY=0.5;exitDx=0;exitDy=0;endArrow=none;endFill=0;" edge="1" parent="1" source="9ewqIqUccNTAprrQMNb2-2" target="9ewqIqUccNTAprrQMNb2-16">
          <mxGeometry relative="1" as="geometry" />
        </mxCell>
        <mxCell id="9ewqIqUccNTAprrQMNb2-2" value="sell" style="shape=rhombus;perimeter=rhombusPerimeter;whiteSpace=wrap;html=1;align=center;" vertex="1" parent="1">
          <mxGeometry x="390" y="240" width="120" height="60" as="geometry" />
        </mxCell>
        <mxCell id="9ewqIqUccNTAprrQMNb2-25" style="edgeStyle=orthogonalEdgeStyle;rounded=0;orthogonalLoop=1;jettySize=auto;html=1;exitX=0;exitY=0.75;exitDx=0;exitDy=0;endArrow=none;endFill=0;" edge="1" parent="1" source="9ewqIqUccNTAprrQMNb2-3" target="9ewqIqUccNTAprrQMNb2-21">
          <mxGeometry relative="1" as="geometry" />
        </mxCell>
        <mxCell id="9ewqIqUccNTAprrQMNb2-27" style="edgeStyle=orthogonalEdgeStyle;rounded=0;orthogonalLoop=1;jettySize=auto;html=1;exitX=1;exitY=1;exitDx=0;exitDy=0;entryX=0.5;entryY=0;entryDx=0;entryDy=0;endArrow=none;endFill=0;" edge="1" parent="1" source="9ewqIqUccNTAprrQMNb2-3" target="9ewqIqUccNTAprrQMNb2-23">
          <mxGeometry relative="1" as="geometry" />
        </mxCell>
        <mxCell id="9ewqIqUccNTAprrQMNb2-3" value="Product" style="whiteSpace=wrap;html=1;align=center;" vertex="1" parent="1">
          <mxGeometry x="400" y="340" width="100" height="40" as="geometry" />
        </mxCell>
        <mxCell id="9ewqIqUccNTAprrQMNb2-4" value="" style="endArrow=classic;html=1;rounded=0;" edge="1" parent="1" source="9ewqIqUccNTAprrQMNb2-2" target="9ewqIqUccNTAprrQMNb2-1">
          <mxGeometry width="50" height="50" relative="1" as="geometry">
            <mxPoint x="400" y="290" as="sourcePoint" />
            <mxPoint x="450" y="240" as="targetPoint" />
          </mxGeometry>
        </mxCell>
        <mxCell id="9ewqIqUccNTAprrQMNb2-6" value="0:M" style="edgeLabel;html=1;align=center;verticalAlign=middle;resizable=0;points=[];" vertex="1" connectable="0" parent="9ewqIqUccNTAprrQMNb2-4">
          <mxGeometry x="0.12" y="2" relative="1" as="geometry">
            <mxPoint as="offset" />
          </mxGeometry>
        </mxCell>
        <mxCell id="9ewqIqUccNTAprrQMNb2-5" value="" style="endArrow=classic;html=1;rounded=0;" edge="1" parent="1" source="9ewqIqUccNTAprrQMNb2-2" target="9ewqIqUccNTAprrQMNb2-3">
          <mxGeometry width="50" height="50" relative="1" as="geometry">
            <mxPoint x="400" y="290" as="sourcePoint" />
            <mxPoint x="450" y="240" as="targetPoint" />
          </mxGeometry>
        </mxCell>
        <mxCell id="9ewqIqUccNTAprrQMNb2-7" value="0:N" style="edgeLabel;html=1;align=center;verticalAlign=middle;resizable=0;points=[];" vertex="1" connectable="0" parent="9ewqIqUccNTAprrQMNb2-5">
          <mxGeometry x="0.05" relative="1" as="geometry">
            <mxPoint as="offset" />
          </mxGeometry>
        </mxCell>
        <mxCell id="9ewqIqUccNTAprrQMNb2-8" value="N&lt;span style=&quot;background-color: initial;&quot;&gt;ombrePais&lt;/span&gt;" style="ellipse;whiteSpace=wrap;html=1;align=center;" vertex="1" parent="1">
          <mxGeometry x="440" y="30" width="100" height="40" as="geometry" />
        </mxCell>
        <mxCell id="9ewqIqUccNTAprrQMNb2-13" style="edgeStyle=orthogonalEdgeStyle;rounded=0;orthogonalLoop=1;jettySize=auto;html=1;exitX=1;exitY=1;exitDx=0;exitDy=0;entryX=0;entryY=0;entryDx=0;entryDy=0;endArrow=none;endFill=0;" edge="1" parent="1" source="9ewqIqUccNTAprrQMNb2-9" target="9ewqIqUccNTAprrQMNb2-1">
          <mxGeometry relative="1" as="geometry" />
        </mxCell>
        <mxCell id="9ewqIqUccNTAprrQMNb2-9" value="Rut" style="ellipse;whiteSpace=wrap;html=1;align=center;fontStyle=4" vertex="1" parent="1">
          <mxGeometry x="250" y="70" width="100" height="40" as="geometry" />
        </mxCell>
        <mxCell id="9ewqIqUccNTAprrQMNb2-14" style="edgeStyle=orthogonalEdgeStyle;rounded=0;orthogonalLoop=1;jettySize=auto;html=1;exitX=1;exitY=1;exitDx=0;exitDy=0;entryX=0;entryY=0.5;entryDx=0;entryDy=0;endArrow=none;endFill=0;" edge="1" parent="1" source="9ewqIqUccNTAprrQMNb2-10" target="9ewqIqUccNTAprrQMNb2-1">
          <mxGeometry relative="1" as="geometry" />
        </mxCell>
        <mxCell id="9ewqIqUccNTAprrQMNb2-10" value="Nombre" style="ellipse;whiteSpace=wrap;html=1;align=center;" vertex="1" parent="1">
          <mxGeometry x="210" y="150" width="100" height="40" as="geometry" />
        </mxCell>
        <mxCell id="9ewqIqUccNTAprrQMNb2-15" value="Cantidad" style="ellipse;whiteSpace=wrap;html=1;align=center;" vertex="1" parent="1">
          <mxGeometry x="600" y="210" width="100" height="40" as="geometry" />
        </mxCell>
        <mxCell id="9ewqIqUccNTAprrQMNb2-16" value="Fecha" style="ellipse;whiteSpace=wrap;html=1;align=center;" vertex="1" parent="1">
          <mxGeometry x="600" y="280" width="100" height="40" as="geometry" />
        </mxCell>
        <mxCell id="9ewqIqUccNTAprrQMNb2-21" value="IdProducto" style="ellipse;whiteSpace=wrap;html=1;align=center;fontStyle=4" vertex="1" parent="1">
          <mxGeometry x="250" y="380" width="100" height="40" as="geometry" />
        </mxCell>
        <mxCell id="9ewqIqUccNTAprrQMNb2-22" value="Nombre" style="ellipse;whiteSpace=wrap;html=1;align=center;" vertex="1" parent="1">
          <mxGeometry x="325" y="490" width="100" height="40" as="geometry" />
        </mxCell>
        <mxCell id="9ewqIqUccNTAprrQMNb2-23" value="Stock" style="ellipse;whiteSpace=wrap;html=1;align=center;" vertex="1" parent="1">
          <mxGeometry x="500" y="470" width="100" height="40" as="geometry" />
        </mxCell>
        <mxCell id="9ewqIqUccNTAprrQMNb2-24" value="Precio" style="ellipse;whiteSpace=wrap;html=1;align=center;" vertex="1" parent="1">
          <mxGeometry x="590" y="390" width="100" height="40" as="geometry" />
        </mxCell>
        <mxCell id="9ewqIqUccNTAprrQMNb2-26" style="edgeStyle=orthogonalEdgeStyle;rounded=0;orthogonalLoop=1;jettySize=auto;html=1;exitX=0.25;exitY=1;exitDx=0;exitDy=0;entryX=0.75;entryY=0;entryDx=0;entryDy=0;entryPerimeter=0;endArrow=none;endFill=0;" edge="1" parent="1" source="9ewqIqUccNTAprrQMNb2-3" target="9ewqIqUccNTAprrQMNb2-22">
          <mxGeometry relative="1" as="geometry" />
        </mxCell>
        <mxCell id="9ewqIqUccNTAprrQMNb2-28" style="edgeStyle=orthogonalEdgeStyle;rounded=0;orthogonalLoop=1;jettySize=auto;html=1;entryX=0.31;entryY=0;entryDx=0;entryDy=0;entryPerimeter=0;endArrow=none;endFill=0;" edge="1" parent="1" source="9ewqIqUccNTAprrQMNb2-3" target="9ewqIqUccNTAprrQMNb2-24">
          <mxGeometry relative="1" as="geometry" />
        </mxCell>
        <mxCell id="9ewqIqUccNTAprrQMNb2-30" style="edgeStyle=orthogonalEdgeStyle;rounded=0;orthogonalLoop=1;jettySize=auto;html=1;endArrow=none;endFill=0;" edge="1" parent="1" source="9ewqIqUccNTAprrQMNb2-29" target="9ewqIqUccNTAprrQMNb2-2">
          <mxGeometry relative="1" as="geometry" />
        </mxCell>
        <mxCell id="9ewqIqUccNTAprrQMNb2-29" value="IdVenta" style="ellipse;whiteSpace=wrap;html=1;align=center;fontStyle=4;" vertex="1" parent="1">
          <mxGeometry x="190" y="250" width="100" height="40" as="geometry" />
        </mxCell>
      </root>
    </mxGraphModel>
  </diagram>
</mxfile>
